<?xml version="1.0" encoding="UTF-8"?>
<svg id="Layer_1" xmlns="http://www.w3.org/2000/svg" xmlns:xlink="http://www.w3.org/1999/xlink" version="1.1" viewBox="0 0 24 24">
  <!-- Generator: Adobe Illustrator 29.5.1, SVG Export Plug-In . SVG Version: 2.1.0 Build 141)  -->
  <defs>
    <style>
      .st0nn {
        fill: none;
      }

      .st1nn {
        clip-path: url(#clippath);
        fill: currentColor;
      }
    </style>
    <clipPath id="clippath">
      <rect class="st0" x="1.4" width="21.3" height="24"/>
    </clipPath>
  </defs>
  <g class="st1nn">
    <g>
      <path d="M11.9,23.9c-.3,0-.6,0-.9-.2l-2.9-1.7c-.4-.2-.2-.3,0-.4.6-.2.7-.2,1.3-.6,0,0,.2,0,.2,0l2.2,1.3c0,0,.2,0,.3,0l8.7-5c0,0,.1-.1.1-.2V7c0-.1,0-.2-.1-.2L12,1.8c0,0-.2,0-.3,0L3.1,6.8c0,0-.1.2-.1.2v10c0,0,0,.2.1.2l2.4,1.4c1.3.7,2.1-.1,2.1-.9V7.9c0-.1.1-.3.3-.3h1.1c.1,0,.3.1.3.3v9.9c0,1.7-.9,2.7-2.6,2.7s-.9,0-2-.5l-2.3-1.3c-.6-.3-.9-.9-.9-1.6V7c0-.7.3-1.3.9-1.6L11,.5c.5-.3,1.3-.3,1.8,0l8.7,5c.6.3.9.9.9,1.6v10c0,.7-.3,1.3-.9,1.6l-8.7,5c-.3.1-.6.2-.9.2Z"/>
      <path d="M14.6,17c-3.8,0-4.6-1.7-4.6-3.2s.1-.3.3-.3h1.1c.1,0,.2,0,.2.2.2,1.2.7,1.7,3,1.7s2.6-.4,2.6-1.4-.2-1-3.1-1.3c-2.4-.2-3.8-.8-3.8-2.6s1.5-2.8,3.9-2.8,4.1,1,4.3,3c0,0,0,.1,0,.2,0,0-.1,0-.2,0h-1.1c-.1,0-.2,0-.2-.2-.3-1.2-.9-1.6-2.7-1.6s-2.2.7-2.2,1.2.3.8,3,1.2c2.7.3,3.9.8,3.9,2.7s-1.6,3-4.3,3Z"/>
    </g>
  </g>
</svg>